<mxfile host="Electron" agent="Mozilla/5.0 (Macintosh; Intel Mac OS X 10_15_7) AppleWebKit/537.36 (KHTML, like Gecko) draw.io/24.7.17 Chrome/128.0.6613.36 Electron/32.0.1 Safari/537.36" version="24.7.17">
  <diagram name="Page-1" id="7kads3ZOwzDu2dZU6D6g">
    <mxGraphModel dx="984" dy="718" grid="1" gridSize="10" guides="1" tooltips="1" connect="1" arrows="1" fold="1" page="1" pageScale="1" pageWidth="850" pageHeight="1100" math="0" shadow="0">
      <root>
        <mxCell id="0" />
        <mxCell id="1" parent="0" />
        <mxCell id="ehmuCgkWSosziZ9xtzjw-25" value="" style="edgeStyle=orthogonalEdgeStyle;rounded=0;orthogonalLoop=1;jettySize=auto;html=1;endArrow=none;endFill=0;" edge="1" parent="1" source="ehmuCgkWSosziZ9xtzjw-3" target="ehmuCgkWSosziZ9xtzjw-4">
          <mxGeometry relative="1" as="geometry" />
        </mxCell>
        <mxCell id="ehmuCgkWSosziZ9xtzjw-42" style="edgeStyle=orthogonalEdgeStyle;rounded=0;orthogonalLoop=1;jettySize=auto;html=1;entryX=0;entryY=0.5;entryDx=0;entryDy=0;endArrow=none;endFill=0;" edge="1" parent="1" source="ehmuCgkWSosziZ9xtzjw-3" target="ehmuCgkWSosziZ9xtzjw-5">
          <mxGeometry relative="1" as="geometry" />
        </mxCell>
        <mxCell id="ehmuCgkWSosziZ9xtzjw-43" style="edgeStyle=orthogonalEdgeStyle;rounded=0;orthogonalLoop=1;jettySize=auto;html=1;exitX=1;exitY=1;exitDx=0;exitDy=0;entryX=0;entryY=0.5;entryDx=0;entryDy=0;endArrow=none;endFill=0;" edge="1" parent="1" source="ehmuCgkWSosziZ9xtzjw-3" target="ehmuCgkWSosziZ9xtzjw-7">
          <mxGeometry relative="1" as="geometry" />
        </mxCell>
        <mxCell id="ehmuCgkWSosziZ9xtzjw-3" value="&lt;font style=&quot;font-size: 22px;&quot; face=&quot;Times New Roman&quot;&gt;User&lt;/font&gt;" style="rounded=1;whiteSpace=wrap;html=1;" vertex="1" parent="1">
          <mxGeometry x="560" y="200" width="120" height="80" as="geometry" />
        </mxCell>
        <mxCell id="ehmuCgkWSosziZ9xtzjw-26" value="" style="edgeStyle=orthogonalEdgeStyle;rounded=0;orthogonalLoop=1;jettySize=auto;html=1;endArrow=none;endFill=0;" edge="1" parent="1" source="ehmuCgkWSosziZ9xtzjw-4" target="ehmuCgkWSosziZ9xtzjw-20">
          <mxGeometry relative="1" as="geometry" />
        </mxCell>
        <mxCell id="ehmuCgkWSosziZ9xtzjw-39" style="edgeStyle=orthogonalEdgeStyle;rounded=0;orthogonalLoop=1;jettySize=auto;html=1;exitX=0;exitY=1;exitDx=0;exitDy=0;entryX=0.5;entryY=0;entryDx=0;entryDy=0;endArrow=none;endFill=0;" edge="1" parent="1" source="ehmuCgkWSosziZ9xtzjw-4" target="ehmuCgkWSosziZ9xtzjw-12">
          <mxGeometry relative="1" as="geometry" />
        </mxCell>
        <mxCell id="ehmuCgkWSosziZ9xtzjw-40" style="edgeStyle=orthogonalEdgeStyle;rounded=0;orthogonalLoop=1;jettySize=auto;html=1;exitX=1;exitY=1;exitDx=0;exitDy=0;entryX=0.5;entryY=0;entryDx=0;entryDy=0;endArrow=none;endFill=0;" edge="1" parent="1" source="ehmuCgkWSosziZ9xtzjw-4" target="ehmuCgkWSosziZ9xtzjw-11">
          <mxGeometry relative="1" as="geometry" />
        </mxCell>
        <mxCell id="ehmuCgkWSosziZ9xtzjw-4" value="&lt;font style=&quot;font-size: 17px;&quot; face=&quot;Times New Roman&quot;&gt;Borrow&lt;/font&gt;&lt;div style=&quot;font-size: 17px;&quot;&gt;&lt;font style=&quot;font-size: 17px;&quot; face=&quot;Times New Roman&quot;&gt;Records&lt;/font&gt;&lt;/div&gt;" style="rhombus;whiteSpace=wrap;html=1;" vertex="1" parent="1">
          <mxGeometry x="355" y="180" width="140" height="120" as="geometry" />
        </mxCell>
        <mxCell id="ehmuCgkWSosziZ9xtzjw-5" value="&lt;u&gt;user id&lt;/u&gt;" style="ellipse;whiteSpace=wrap;html=1;" vertex="1" parent="1">
          <mxGeometry x="750" y="220" width="80" height="40" as="geometry" />
        </mxCell>
        <mxCell id="ehmuCgkWSosziZ9xtzjw-6" value="name" style="ellipse;whiteSpace=wrap;html=1;" vertex="1" parent="1">
          <mxGeometry x="710" y="160" width="80" height="40" as="geometry" />
        </mxCell>
        <mxCell id="ehmuCgkWSosziZ9xtzjw-7" value="email" style="ellipse;whiteSpace=wrap;html=1;" vertex="1" parent="1">
          <mxGeometry x="710" y="280" width="80" height="40" as="geometry" />
        </mxCell>
        <mxCell id="ehmuCgkWSosziZ9xtzjw-9" value="&lt;u&gt;book id&lt;/u&gt;" style="ellipse;whiteSpace=wrap;html=1;" vertex="1" parent="1">
          <mxGeometry x="10" y="220" width="80" height="40" as="geometry" />
        </mxCell>
        <mxCell id="ehmuCgkWSosziZ9xtzjw-11" value="return date" style="ellipse;whiteSpace=wrap;html=1;" vertex="1" parent="1">
          <mxGeometry x="440" y="360" width="80" height="40" as="geometry" />
        </mxCell>
        <mxCell id="ehmuCgkWSosziZ9xtzjw-12" value="borrow date" style="ellipse;whiteSpace=wrap;html=1;" vertex="1" parent="1">
          <mxGeometry x="320" y="360" width="80" height="40" as="geometry" />
        </mxCell>
        <mxCell id="ehmuCgkWSosziZ9xtzjw-14" value="publish year" style="ellipse;whiteSpace=wrap;html=1;" vertex="1" parent="1">
          <mxGeometry x="90" y="120" width="80" height="40" as="geometry" />
        </mxCell>
        <mxCell id="ehmuCgkWSosziZ9xtzjw-15" value="availability" style="ellipse;whiteSpace=wrap;html=1;" vertex="1" parent="1">
          <mxGeometry x="40" y="270" width="80" height="40" as="geometry" />
        </mxCell>
        <mxCell id="ehmuCgkWSosziZ9xtzjw-16" value="isbn" style="ellipse;whiteSpace=wrap;html=1;" vertex="1" parent="1">
          <mxGeometry x="180" y="100" width="80" height="40" as="geometry" />
        </mxCell>
        <mxCell id="ehmuCgkWSosziZ9xtzjw-17" value="author" style="ellipse;whiteSpace=wrap;html=1;" vertex="1" parent="1">
          <mxGeometry x="160" y="360" width="80" height="40" as="geometry" />
        </mxCell>
        <mxCell id="ehmuCgkWSosziZ9xtzjw-18" value="title&lt;span style=&quot;color: rgba(0, 0, 0, 0); font-family: monospace; font-size: 0px; text-align: start; text-wrap: nowrap;&quot;&gt;%3CmxGraphModel%3E%3Croot%3E%3CmxCell%20id%3D%220%22%2F%3E%3CmxCell%20id%3D%221%22%20parent%3D%220%22%2F%3E%3CmxCell%20id%3D%222%22%20value%3D%22borrow%20date%22%20style%3D%22ellipse%3BwhiteSpace%3Dwrap%3Bhtml%3D1%3B%22%20vertex%3D%221%22%20parent%3D%221%22%3E%3CmxGeometry%20x%3D%22230%22%20y%3D%22390%22%20width%3D%22100%22%20height%3D%2260%22%20as%3D%22geometry%22%2F%3E%3C%2FmxCell%3E%3C%2Froot%3E%3C%2FmxGraphModel%3E&lt;/span&gt;" style="ellipse;whiteSpace=wrap;html=1;" vertex="1" parent="1">
          <mxGeometry x="40" y="170" width="80" height="40" as="geometry" />
        </mxCell>
        <mxCell id="ehmuCgkWSosziZ9xtzjw-19" value="genre" style="ellipse;whiteSpace=wrap;html=1;" vertex="1" parent="1">
          <mxGeometry x="80" y="320" width="80" height="40" as="geometry" />
        </mxCell>
        <mxCell id="ehmuCgkWSosziZ9xtzjw-29" value="" style="edgeStyle=orthogonalEdgeStyle;rounded=0;orthogonalLoop=1;jettySize=auto;html=1;endArrow=none;endFill=0;" edge="1" parent="1" source="ehmuCgkWSosziZ9xtzjw-20" target="ehmuCgkWSosziZ9xtzjw-16">
          <mxGeometry relative="1" as="geometry" />
        </mxCell>
        <mxCell id="ehmuCgkWSosziZ9xtzjw-33" style="edgeStyle=orthogonalEdgeStyle;rounded=0;orthogonalLoop=1;jettySize=auto;html=1;entryX=1;entryY=0.5;entryDx=0;entryDy=0;endArrow=none;endFill=0;" edge="1" parent="1" source="ehmuCgkWSosziZ9xtzjw-20" target="ehmuCgkWSosziZ9xtzjw-9">
          <mxGeometry relative="1" as="geometry" />
        </mxCell>
        <mxCell id="ehmuCgkWSosziZ9xtzjw-36" style="edgeStyle=orthogonalEdgeStyle;rounded=0;orthogonalLoop=1;jettySize=auto;html=1;endArrow=none;endFill=0;" edge="1" parent="1" source="ehmuCgkWSosziZ9xtzjw-20" target="ehmuCgkWSosziZ9xtzjw-17">
          <mxGeometry relative="1" as="geometry" />
        </mxCell>
        <mxCell id="ehmuCgkWSosziZ9xtzjw-37" style="edgeStyle=orthogonalEdgeStyle;rounded=0;orthogonalLoop=1;jettySize=auto;html=1;exitX=0;exitY=1;exitDx=0;exitDy=0;entryX=1;entryY=0;entryDx=0;entryDy=0;endArrow=none;endFill=0;" edge="1" parent="1" source="ehmuCgkWSosziZ9xtzjw-20" target="ehmuCgkWSosziZ9xtzjw-19">
          <mxGeometry relative="1" as="geometry" />
        </mxCell>
        <mxCell id="ehmuCgkWSosziZ9xtzjw-20" value="&lt;font style=&quot;font-size: 22px;&quot; face=&quot;Times New Roman&quot;&gt;Book&lt;/font&gt;" style="rounded=1;whiteSpace=wrap;html=1;" vertex="1" parent="1">
          <mxGeometry x="160" y="200" width="130" height="80" as="geometry" />
        </mxCell>
        <mxCell id="ehmuCgkWSosziZ9xtzjw-27" value="1" style="text;html=1;align=center;verticalAlign=middle;resizable=0;points=[];autosize=1;strokeColor=none;fillColor=none;" vertex="1" parent="1">
          <mxGeometry x="515" y="208" width="30" height="30" as="geometry" />
        </mxCell>
        <mxCell id="ehmuCgkWSosziZ9xtzjw-28" value="M" style="text;html=1;align=center;verticalAlign=middle;resizable=0;points=[];autosize=1;strokeColor=none;fillColor=none;" vertex="1" parent="1">
          <mxGeometry x="305" y="208" width="30" height="30" as="geometry" />
        </mxCell>
        <mxCell id="ehmuCgkWSosziZ9xtzjw-30" style="edgeStyle=orthogonalEdgeStyle;rounded=0;orthogonalLoop=1;jettySize=auto;html=1;exitX=0;exitY=0;exitDx=0;exitDy=0;entryX=0.75;entryY=1.025;entryDx=0;entryDy=0;entryPerimeter=0;endArrow=none;endFill=0;" edge="1" parent="1" source="ehmuCgkWSosziZ9xtzjw-20" target="ehmuCgkWSosziZ9xtzjw-14">
          <mxGeometry relative="1" as="geometry" />
        </mxCell>
        <mxCell id="ehmuCgkWSosziZ9xtzjw-34" style="edgeStyle=orthogonalEdgeStyle;rounded=0;orthogonalLoop=1;jettySize=auto;html=1;exitX=0;exitY=0.25;exitDx=0;exitDy=0;entryX=1;entryY=0.75;entryDx=0;entryDy=0;entryPerimeter=0;endArrow=none;endFill=0;" edge="1" parent="1" source="ehmuCgkWSosziZ9xtzjw-20" target="ehmuCgkWSosziZ9xtzjw-18">
          <mxGeometry relative="1" as="geometry" />
        </mxCell>
        <mxCell id="ehmuCgkWSosziZ9xtzjw-35" style="edgeStyle=orthogonalEdgeStyle;rounded=0;orthogonalLoop=1;jettySize=auto;html=1;exitX=0;exitY=0.75;exitDx=0;exitDy=0;entryX=1;entryY=0.25;entryDx=0;entryDy=0;entryPerimeter=0;endArrow=none;endFill=0;" edge="1" parent="1" source="ehmuCgkWSosziZ9xtzjw-20" target="ehmuCgkWSosziZ9xtzjw-15">
          <mxGeometry relative="1" as="geometry" />
        </mxCell>
        <mxCell id="ehmuCgkWSosziZ9xtzjw-41" style="edgeStyle=orthogonalEdgeStyle;rounded=0;orthogonalLoop=1;jettySize=auto;html=1;exitX=1;exitY=0;exitDx=0;exitDy=0;entryX=0.05;entryY=0.8;entryDx=0;entryDy=0;entryPerimeter=0;endArrow=none;endFill=0;" edge="1" parent="1" source="ehmuCgkWSosziZ9xtzjw-3" target="ehmuCgkWSosziZ9xtzjw-6">
          <mxGeometry relative="1" as="geometry" />
        </mxCell>
      </root>
    </mxGraphModel>
  </diagram>
</mxfile>
